<svg width="64" height="64" xmlns="http://www.w3.org/2000/svg">
  <!-- body -->
  <rect x="5" y="5" width="54" height="54" rx="4" ry="4" fill="#5294e2" />
  <!-- White base -->
  <rect x="5" y="47" width="54" height="13" rx="4" ry="4" fill="#f4f4f4" />
  <!-- Slot left -->
  <rect x="12" y="52" width="24" height="4" rx="1" fill="#666" />
  <!-- Slots right 1 -->
  <rect x="40" y="52" width="4" height="4" rx="4" fill="#666" />
  <!-- Slots right 2 -->
  <rect x="48" y="52" width="4" height="4" rx="4" fill="#666" />
  <!-- USB symbol -->
  <g fill="#f4f4f4" transform="scale(1,.8)">
    <circle cx="32" cy="31" r="16" paint-order="markers stroke fill" />
    <circle cx="32" cy="31" r="14" fill="#5294e2" paint-order="markers stroke fill" />
    <path
      d="m29.309 37.485h5.387v2.02h-5.387zm0 3.367h5.387v2.02h-5.387zm2.693-14.142a4.714 4.714 0 0 0-4.714 4.714 4.714 4.714 0 0 0 4.714 4.714 4.714 4.714 0 0 0 4.714-4.714 4.714 4.714 0 0 0-4.714-4.714zm0 2.02a2.694 2.694 0 0 1 2.694 2.694 2.694 2.694 0 0 1-2.694 2.694 2.694 2.694 0 0 1-2.693-2.694 2.694 2.694 0 0 1 2.693-2.694zm6.188 0.27-3.809-3.81 3.81-3.809 3.809 3.81zm-8.571-3.81-3.81 3.81-1.428-1.429 3.81-3.81zm-2.381-2.38-3.81 3.809-1.428-1.429 3.81-3.809z" />
  </g>
</svg>