<svg width="64" height="64" xmlns="http://www.w3.org/2000/svg">
  <!-- body -->
  <rect x="5" y="5" width="54" height="54" rx="4" ry="4" fill="#5294e2" />
  <!-- White base -->
  <rect x="5" y="47" width="54" height="13" rx="4" ry="4" fill="#f4f4f4" />
  <!-- Slot left -->
  <rect x="12" y="52" width="24" height="4" rx="1" fill="#666" />
  <!-- Slots right 1 -->
  <rect x="40" y="52" width="4" height="4" rx="4" fill="#666" />
  <!-- Slots right 2 -->
  <rect x="48" y="52" width="4" height="4" rx="4" fill="#666" />
  <!-- symbol -->
  <g fill="#f4f4f4" transform="scale(1,.8)">
    <!-- SSD text -->
    <text x="32" y="28" font-size="16" font-style="italic" text-anchor="middle" font-family="sans-serif"
      font-weight="bold" transform="scale(1, 1.4)">SSD</text>
    <!-- <circle cx="32" cy="31" r="16" paint-order="markers stroke fill" /> -->
    <!-- <circle cx="32" cy="31" r="14" fill="#5294e2" paint-order="markers stroke fill" /> -->
    <!-- <path
      d="m32 22.429a8 8 0 0 0-8 8v8h8a8 8 0 1 0 0-16zm0 4.571a3.429 3.429 0 0 1 3.429 3.429 3.429 3.429 0
    0 1-3.429 3.428 3.429 3.429 0 0 1-3.429-3.428 3.429 3.429 0 0 1 3.429-3.429z" /> -->
  </g>
</svg>